<svg xmlns="http://www.w3.org/2000/svg" viewBox="0 0 960 820" width="960" height="820">
  <style>
    text { font-family: "Courier New", "Lucida Console", "Microsoft YaHei", "SimHei", monospace; fill: #caf0f8; }
  </style>
  <defs>
    <pattern id="grid" width="30" height="30" patternUnits="userSpaceOnUse">
      <path d="M 30 0 L 0 0 0 30" fill="none" stroke="#112240" stroke-width="0.5"/>
    </pattern>
    <marker id="arrow-cyan" markerWidth="8" markerHeight="6" refX="7" refY="3" orient="auto">
      <polygon points="0 0, 8 3, 0 6" fill="#00b4d8"/>
    </marker>
    <marker id="arrow-green" markerWidth="8" markerHeight="6" refX="7" refY="3" orient="auto">
      <polygon points="0 0, 8 3, 0 6" fill="#06d6a0"/>
    </marker>
    <marker id="arrow-orange" markerWidth="8" markerHeight="6" refX="7" refY="3" orient="auto">
      <polygon points="0 0, 8 3, 0 6" fill="#f77f00"/>
    </marker>
    <marker id="arrow-gray" markerWidth="8" markerHeight="6" refX="7" refY="3" orient="auto">
      <polygon points="0 0, 8 3, 0 6" fill="#6b7280"/>
    </marker>
  </defs>

  <!-- Background -->
  <rect width="960" height="820" fill="#0a1628"/>
  <rect width="960" height="820" fill="url(#grid)" opacity="0.6"/>

  <!-- ==================== 01 // ENTRY & CLI ==================== -->
  <rect x="30" y="20" width="900" height="105" rx="2" fill="none" stroke="#00b4d8" stroke-width="1" stroke-dasharray="6,3"/>
  <text x="50" y="40" fill="#00b4d8" font-size="11" font-weight="700" letter-spacing="0.1em">01 // ENTRY &amp; CLI</text>

  <!-- CLI Entry (main.go) -->
  <rect x="80" y="52" width="180" height="58" rx="2" fill="#0d1f3c" stroke="#00b4d8" stroke-width="1"/>
  <text x="170" y="75" text-anchor="middle" fill="#ffffff" font-size="13" font-weight="700">CLI Entry</text>
  <text x="170" y="92" text-anchor="middle" fill="#90e0ef" font-size="10">main.go / Cobra</text>

  <!-- Commands -->
  <rect x="310" y="52" width="80" height="26" rx="2" fill="#0d1f3c" stroke="#06d6a0" stroke-width="1"/>
  <text x="350" y="69" text-anchor="middle" fill="#06d6a0" font-size="10">restore</text>

  <rect x="400" y="52" width="60" height="26" rx="2" fill="#0d1f3c" stroke="#48cae4" stroke-width="1"/>
  <text x="430" y="69" text-anchor="middle" fill="#48cae4" font-size="10">check</text>

  <rect x="470" y="52" width="80" height="26" rx="2" fill="#0d1f3c" stroke="#48cae4" stroke-width="1"/>
  <text x="510" y="69" text-anchor="middle" fill="#48cae4" font-size="10">version</text>

  <!-- config.yaml -->
  <rect x="680" y="52" width="220" height="58" rx="2" fill="#0d1f3c" stroke="#f77f00" stroke-width="1"/>
  <text x="790" y="75" text-anchor="middle" fill="#ffffff" font-size="13" font-weight="700">Config (Viper)</text>
  <text x="790" y="92" text-anchor="middle" fill="#90e0ef" font-size="10">config.yaml + ENV overrides</text>

  <line x1="260" y1="65" x2="310" y2="65" stroke="#00b4d8" stroke-width="1" marker-end="url(#arrow-cyan)"/>
  <line x1="680" y1="81" x2="260" y2="81" stroke="#f77f00" stroke-width="1" stroke-dasharray="5,3" marker-end="url(#arrow-orange)"/>

  <!-- ==================== 02 // CORE RESTORER ==================== -->
  <rect x="30" y="140" width="560" height="400" rx="2" fill="none" stroke="#00b4d8" stroke-width="1.5"/>
  <text x="50" y="160" fill="#00b4d8" font-size="11" font-weight="700" letter-spacing="0.1em">02 // CORE RESTORER</text>

  <!-- Restorer Orchestrator -->
  <rect x="60" y="172" width="500" height="55" rx="2" fill="#0d1f3c" stroke="#06d6a0" stroke-width="2"/>
  <text x="310" y="195" text-anchor="middle" fill="#06d6a0" font-size="14" font-weight="700">Restorer Orchestrator</text>
  <text x="310" y="212" text-anchor="middle" fill="#90e0ef" font-size="10">restorer.go - 8-step restore pipeline</text>

  <!-- Step 1 -->
  <rect x="65" y="245" width="58" height="48" rx="2" fill="#0d1f3c" stroke="#48cae4" stroke-width="1"/>
  <text x="94.0" y="260" text-anchor="middle" fill="#00b4d8" font-size="10" font-weight="700">1</text>
  <text x="94.0" y="273" text-anchor="middle" fill="#caf0f8" font-size="9">Delete</text>
  <text x="94.0" y="285" text-anchor="middle" fill="#caf0f8" font-size="9">&amp; Cleanup</text>
  <line x1="123" y1="269.0" x2="126" y2="269.0" stroke="#48cae4" stroke-width="0.8" marker-end="url(#arrow-cyan)"/>
  <!-- Step 2 -->
  <rect x="126" y="245" width="58" height="48" rx="2" fill="#0d1f3c" stroke="#48cae4" stroke-width="1"/>
  <text x="155.0" y="260" text-anchor="middle" fill="#00b4d8" font-size="10" font-weight="700">2</text>
  <text x="155.0" y="273" text-anchor="middle" fill="#caf0f8" font-size="9">Restart</text>
  <text x="155.0" y="285" text-anchor="middle" fill="#caf0f8" font-size="9">Pod</text>
  <line x1="184" y1="269.0" x2="187" y2="269.0" stroke="#48cae4" stroke-width="0.8" marker-end="url(#arrow-cyan)"/>
  <!-- Step 3 -->
  <rect x="187" y="245" width="58" height="48" rx="2" fill="#0d1f3c" stroke="#48cae4" stroke-width="1"/>
  <text x="216.0" y="260" text-anchor="middle" fill="#00b4d8" font-size="10" font-weight="700">3</text>
  <text x="216.0" y="273" text-anchor="middle" fill="#caf0f8" font-size="9">Ensure DB</text>
  <text x="216.0" y="285" text-anchor="middle" fill="#caf0f8" font-size="9">&amp; Regions</text>
  <line x1="245" y1="269.0" x2="248" y2="269.0" stroke="#48cae4" stroke-width="0.8" marker-end="url(#arrow-cyan)"/>
  <!-- Step 4 -->
  <rect x="248" y="245" width="58" height="48" rx="2" fill="#0d1f3c" stroke="#48cae4" stroke-width="1"/>
  <text x="277.0" y="260" text-anchor="middle" fill="#00b4d8" font-size="10" font-weight="700">4</text>
  <text x="277.0" y="273" text-anchor="middle" fill="#caf0f8" font-size="9">Prepare</text>
  <text x="277.0" y="285" text-anchor="middle" fill="#caf0f8" font-size="9">Input</text>
  <line x1="306" y1="269.0" x2="309" y2="269.0" stroke="#48cae4" stroke-width="0.8" marker-end="url(#arrow-cyan)"/>
  <!-- Step 5 -->
  <rect x="309" y="245" width="58" height="48" rx="2" fill="#0d1f3c" stroke="#48cae4" stroke-width="1"/>
  <text x="338.0" y="260" text-anchor="middle" fill="#00b4d8" font-size="10" font-weight="700">5</text>
  <text x="338.0" y="273" text-anchor="middle" fill="#caf0f8" font-size="9">Extract</text>
  <text x="338.0" y="285" text-anchor="middle" fill="#caf0f8" font-size="9">Backup</text>
  <line x1="367" y1="269.0" x2="370" y2="269.0" stroke="#48cae4" stroke-width="0.8" marker-end="url(#arrow-cyan)"/>
  <!-- Step 6 -->
  <rect x="370" y="245" width="58" height="48" rx="2" fill="#0d1f3c" stroke="#48cae4" stroke-width="1"/>
  <text x="399.0" y="260" text-anchor="middle" fill="#00b4d8" font-size="10" font-weight="700">6</text>
  <text x="399.0" y="273" text-anchor="middle" fill="#caf0f8" font-size="9">Import</text>
  <text x="399.0" y="285" text-anchor="middle" fill="#caf0f8" font-size="9">TSFiles</text>
  <line x1="428" y1="269.0" x2="431" y2="269.0" stroke="#48cae4" stroke-width="0.8" marker-end="url(#arrow-cyan)"/>
  <!-- Step 7 -->
  <rect x="431" y="245" width="58" height="48" rx="2" fill="#0d1f3c" stroke="#48cae4" stroke-width="1"/>
  <text x="460.0" y="260" text-anchor="middle" fill="#00b4d8" font-size="10" font-weight="700">7</text>
  <text x="460.0" y="273" text-anchor="middle" fill="#caf0f8" font-size="9">Verify</text>
  <text x="460.0" y="285" text-anchor="middle" fill="#caf0f8" font-size="9">R/W</text>
  <line x1="489" y1="269.0" x2="492" y2="269.0" stroke="#48cae4" stroke-width="0.8" marker-end="url(#arrow-cyan)"/>
  <!-- Step 8 -->
  <rect x="492" y="245" width="58" height="48" rx="2" fill="#0d1f3c" stroke="#48cae4" stroke-width="1"/>
  <text x="521.0" y="260" text-anchor="middle" fill="#00b4d8" font-size="10" font-weight="700">8</text>
  <text x="521.0" y="273" text-anchor="middle" fill="#caf0f8" font-size="9">Cleanup</text>
  <text x="521.0" y="285" text-anchor="middle" fill="#caf0f8" font-size="9">&amp; Notify</text>

  <!-- Importer -->
  <rect x="60" y="310" width="240" height="50" rx="2" fill="#0d1f3c" stroke="#06d6a0" stroke-width="1"/>
  <text x="180" y="332" text-anchor="middle" fill="#ffffff" font-size="12" font-weight="700">Importer</text>
  <text x="180" y="348" text-anchor="middle" fill="#90e0ef" font-size="10">importer.go - concurrent + retry</text>

  <!-- Batcher -->
  <rect x="320" y="310" width="240" height="50" rx="2" fill="#0d1f3c" stroke="#06d6a0" stroke-width="1"/>
  <text x="440" y="332" text-anchor="middle" fill="#ffffff" font-size="12" font-weight="700">Batcher</text>
  <text x="440" y="348" text-anchor="middle" fill="#90e0ef" font-size="10">batch.go - batch processing</text>

  <line x1="200" y1="227" x2="180" y2="310" stroke="#06d6a0" stroke-width="1.5" marker-end="url(#arrow-green)"/>
  <line x1="300" y1="335" x2="320" y2="335" stroke="#06d6a0" stroke-width="1" marker-end="url(#arrow-green)"/>
  <line x1="399.0" y1="293" x2="180" y2="310" stroke="#06d6a0" stroke-width="1" stroke-dasharray="4,2" marker-end="url(#arrow-green)"/>

  <!-- Table Parser -->
  <rect x="60" y="375" width="240" height="35" rx="2" fill="#0d1f3c" stroke="#48cae4" stroke-width="1"/>
  <text x="180" y="397" text-anchor="middle" fill="#90e0ef" font-size="10">table.go - CLI output parser</text>

  <line x1="180" y1="360" x2="180" y2="375" stroke="#48cae4" stroke-width="1" marker-end="url(#arrow-cyan)"/>

  <!-- ==================== 03 // DATA SOURCES ==================== -->
  <rect x="610" y="140" width="320" height="185" rx="2" fill="none" stroke="#00b4d8" stroke-width="1"/>
  <text x="630" y="160" fill="#00b4d8" font-size="11" font-weight="700" letter-spacing="0.1em">03 // DATA SOURCES</text>

  <!-- OSS Source -->
  <rect x="630" y="172" width="280" height="60" rx="2" fill="#0d1f3c" stroke="#f77f00" stroke-width="1.5"/>
  <text x="770" y="193" text-anchor="middle" fill="#f77f00" font-size="12" font-weight="700">OSS Source</text>
  <text x="770" y="208" text-anchor="middle" fill="#90e0ef" font-size="10">oss.go - HTTP download + retry</text>
  <text x="770" y="223" text-anchor="middle" fill="#90e0ef" font-size="10">detector.go - auto timestamp</text>

  <!-- Cluster Stream Source -->
  <rect x="630" y="248" width="280" height="60" rx="2" fill="#0d1f3c" stroke="#06d6a0" stroke-width="1.5"/>
  <text x="770" y="269" text-anchor="middle" fill="#06d6a0" font-size="12" font-weight="700">Cluster Stream</text>
  <text x="770" y="284" text-anchor="middle" fill="#90e0ef" font-size="10">transfer.go - pod-to-pod</text>
  <text x="770" y="299" text-anchor="middle" fill="#90e0ef" font-size="10">tar pipe + integrity check</text>

  <!-- ==================== 04 // KUBERNETES ==================== -->
  <rect x="610" y="340" width="320" height="200" rx="2" fill="none" stroke="#00b4d8" stroke-width="1"/>
  <text x="630" y="360" fill="#00b4d8" font-size="11" font-weight="700" letter-spacing="0.1em">04 // KUBERNETES</text>

  <!-- K8s Client -->
  <rect x="630" y="372" width="280" height="32" rx="2" fill="#0d1f3c" stroke="#00b4d8" stroke-width="1"/>
  <text x="770" y="393" text-anchor="middle" fill="#ffffff" font-size="11" font-weight="700">K8s Client (client.go)</text>

  <!-- Pod Checker -->
  <rect x="630" y="416" width="130" height="42" rx="2" fill="#0d1f3c" stroke="#48cae4" stroke-width="1"/>
  <text x="695" y="434" text-anchor="middle" fill="#caf0f8" font-size="10" font-weight="700">Pod Checker</text>
  <text x="695" y="449" text-anchor="middle" fill="#90e0ef" font-size="9">pod.go</text>

  <!-- Executor -->
  <rect x="780" y="416" width="130" height="42" rx="2" fill="#0d1f3c" stroke="#48cae4" stroke-width="1"/>
  <text x="845" y="434" text-anchor="middle" fill="#caf0f8" font-size="10" font-weight="700">Executor</text>
  <text x="845" y="449" text-anchor="middle" fill="#90e0ef" font-size="9">executor.go (SPDY)</text>

  <!-- Transfer -->
  <rect x="630" y="470" width="130" height="42" rx="2" fill="#0d1f3c" stroke="#48cae4" stroke-width="1"/>
  <text x="695" y="488" text-anchor="middle" fill="#caf0f8" font-size="10" font-weight="700">Transfer</text>
  <text x="695" y="503" text-anchor="middle" fill="#90e0ef" font-size="9">transfer.go (tar pipe)</text>

  <!-- Deploy -->
  <rect x="780" y="470" width="130" height="42" rx="2" fill="#0d1f3c" stroke="#48cae4" stroke-width="1" stroke-dasharray="4,2"/>
  <text x="845" y="488" text-anchor="middle" fill="#caf0f8" font-size="10">CronJob / Job</text>
  <text x="845" y="503" text-anchor="middle" fill="#90e0ef" font-size="9">k8s/ deployment</text>

  <line x1="770" y1="404" x2="695" y2="416" stroke="#00b4d8" stroke-width="1" marker-end="url(#arrow-cyan)"/>
  <line x1="770" y1="404" x2="845" y2="416" stroke="#00b4d8" stroke-width="1" marker-end="url(#arrow-cyan)"/>

  <!-- ==================== 05 // SUPPORT SERVICES ==================== -->
  <rect x="30" y="555" width="900" height="80" rx="2" fill="none" stroke="#00b4d8" stroke-width="1"/>
  <text x="50" y="575" fill="#00b4d8" font-size="11" font-weight="700" letter-spacing="0.1em">05 // SUPPORT SERVICES</text>

  <!-- WeChat Notifier -->
  <rect x="60" y="588" width="260" height="35" rx="2" fill="#0d1f3c" stroke="#f77f00" stroke-width="1"/>
  <text x="190" y="610" text-anchor="middle" fill="#f77f00" font-size="11" font-weight="700">WeChat Notifier</text>

  <!-- Logger -->
  <rect x="350" y="588" width="260" height="35" rx="2" fill="#0d1f3c" stroke="#48cae4" stroke-width="1"/>
  <text x="480" y="610" text-anchor="middle" fill="#48cae4" font-size="11" font-weight="700">Logger (zap)</text>

  <!-- File Lock -->
  <rect x="640" y="588" width="260" height="35" rx="2" fill="#0d1f3c" stroke="#48cae4" stroke-width="1"/>
  <text x="770" y="610" text-anchor="middle" fill="#48cae4" font-size="11" font-weight="700">File Lock (mutex)</text>

  <!-- ==================== INTER-SECTION ARROWS ==================== -->

  <line x1="170" y1="110" x2="310" y2="172" stroke="#06d6a0" stroke-width="2" marker-end="url(#arrow-green)"/>
  <rect x="200" y="133" width="50" height="14" rx="1" fill="#0a1628" opacity="0.95"/>
  <text x="225" y="143" text-anchor="middle" fill="#06d6a0" font-size="9">invoke</text>

  <line x1="630" y1="202" x2="560" y2="195" stroke="#f77f00" stroke-width="1.5" marker-end="url(#arrow-orange)"/>
  <rect x="570" y="183" width="58" height="14" rx="1" fill="#0a1628" opacity="0.95"/>
  <text x="599" y="193" text-anchor="middle" fill="#f77f00" font-size="9">download</text>

  <line x1="630" y1="278" x2="560" y2="215" stroke="#06d6a0" stroke-width="1.5" stroke-dasharray="5,3" marker-end="url(#arrow-green)"/>
  <rect x="570" y="238" width="55" height="14" rx="1" fill="#0a1628" opacity="0.95"/>
  <text x="597" y="248" text-anchor="middle" fill="#06d6a0" font-size="9">stream</text>

  <line x1="560" y1="310" x2="630" y2="388" stroke="#00b4d8" stroke-width="1.5" marker-end="url(#arrow-cyan)"/>
  <rect x="575" y="340" width="45" height="14" rx="1" fill="#0a1628" opacity="0.95"/>
  <text x="597" y="350" text-anchor="middle" fill="#00b4d8" font-size="9">k8s</text>

  <line x1="695" y1="308" x2="695" y2="470" stroke="#06d6a0" stroke-width="1" stroke-dasharray="4,2" marker-end="url(#arrow-green)"/>

  <line x1="180" y1="410" x2="190" y2="588" stroke="#f77f00" stroke-width="1" stroke-dasharray="4,2" marker-end="url(#arrow-orange)"/>
  <rect x="153" y="495" width="68" height="14" rx="1" fill="#0a1628" opacity="0.95"/>
  <text x="187" y="505" text-anchor="middle" fill="#f77f00" font-size="9">notify (async)</text>

  <line x1="310" y1="410" x2="480" y2="588" stroke="#48cae4" stroke-width="1" stroke-dasharray="4,2" marker-end="url(#arrow-cyan)"/>

  <line x1="770" y1="588" x2="440" y2="410" stroke="#6b7280" stroke-width="1" stroke-dasharray="5,3" marker-end="url(#arrow-gray)"/>
  <rect x="615" y="492" width="48" height="14" rx="1" fill="#0a1628" opacity="0.95"/>
  <text x="639" y="502" text-anchor="middle" fill="#6b7280" font-size="9">lock</text>

  <!-- ==================== LEGEND ==================== -->
  <rect x="30" y="650" width="900" height="50" rx="2" fill="none" stroke="#112240" stroke-width="0.5"/>
  <text x="50" y="668" fill="#48cae4" font-size="10">LEGEND:</text>

  <line x1="120" y1="665" x2="155" y2="665" stroke="#06d6a0" stroke-width="2" marker-end="url(#arrow-green)"/>
  <text x="162" y="668" fill="#90e0ef" font-size="9">Primary Flow</text>

  <line x1="260" y1="665" x2="295" y2="665" stroke="#f77f00" stroke-width="1.5" marker-end="url(#arrow-orange)"/>
  <text x="302" y="668" fill="#90e0ef" font-size="9">Data / Trigger</text>

  <line x1="410" y1="665" x2="445" y2="665" stroke="#00b4d8" stroke-width="1.5" marker-end="url(#arrow-cyan)"/>
  <text x="452" y="668" fill="#90e0ef" font-size="9">K8s API</text>

  <line x1="530" y1="665" x2="565" y2="665" stroke="#48cae4" stroke-width="1" stroke-dasharray="4,2" marker-end="url(#arrow-cyan)"/>
  <text x="572" y="668" fill="#90e0ef" font-size="9">Async / Event</text>

  <line x1="670" y1="665" x2="705" y2="665" stroke="#6b7280" stroke-width="1" stroke-dasharray="5,3" marker-end="url(#arrow-gray)"/>
  <text x="712" y="668" fill="#90e0ef" font-size="9">Control</text>

  <rect x="790" y="655" width="30" height="16" rx="2" fill="none" stroke="#00b4d8" stroke-width="1"/>
  <text x="826" y="668" fill="#90e0ef" font-size="9">Core</text>

  <rect x="870" y="655" width="30" height="16" rx="2" fill="none" stroke="#00b4d8" stroke-width="1" stroke-dasharray="4,2"/>
  <text x="906" y="668" fill="#90e0ef" font-size="9">Optional</text>

  <!-- ==================== TITLE BLOCK ==================== -->
  <rect x="700" y="718" width="230" height="88" rx="2" fill="#0d1f3c" stroke="#00b4d8" stroke-width="1"/>
  <line x1="700" y1="735" x2="930" y2="735" stroke="#00b4d8" stroke-width="0.5"/>
  <text x="815" y="750" text-anchor="middle" fill="#caf0f8" font-size="10">IoTDB RESTORE TOOL</text>
  <text x="815" y="768" text-anchor="middle" fill="#00b4d8" font-size="13" font-weight="700">SYSTEM ARCHITECTURE</text>
  <line x1="700" y1="778" x2="930" y2="778" stroke="#00b4d8" stroke-width="0.3"/>
  <text x="815" y="793" text-anchor="middle" fill="#48cae4" font-size="9">Go 1.23 + Cobra + client-go</text>

  <rect x="30" y="718" width="300" height="88" rx="2" fill="#0d1f3c" stroke="#00b4d8" stroke-width="0.5"/>
  <text x="50" y="738" fill="#00b4d8" font-size="10" font-weight="700">TECH STACK</text>
  <text x="50" y="755" fill="#90e0ef" font-size="10">Language:     Go 1.23</text>
  <text x="50" y="770" fill="#90e0ef" font-size="10">CLI Framework: Cobra</text>
  <text x="50" y="785" fill="#90e0ef" font-size="10">Config:        Viper + ENV</text>
  <text x="50" y="800" fill="#90e0ef" font-size="10">K8s Client:    client-go (SPDY exec)</text>

  <rect x="350" y="718" width="330" height="88" rx="2" fill="#0d1f3c" stroke="#00b4d8" stroke-width="0.5"/>
  <text x="370" y="738" fill="#00b4d8" font-size="10" font-weight="700">DEPLOYMENT</text>
  <text x="370" y="755" fill="#90e0ef" font-size="10">Binary:  Single static Go binary</text>
  <text x="370" y="770" fill="#90e0ef" font-size="10">Docker:  Multi-stage (Go 1.23 + Alpine)</text>
  <text x="370" y="785" fill="#90e0ef" font-size="10">K8s:     CronJob (2h) / Ad-hoc Job</text>
  <text x="370" y="800" fill="#90e0ef" font-size="10">RBAC:    pods get,list + pods/exec create</text>

</svg>